{
    "asset" : {
        "generator" : "Khronos glTF Blender I/O v1.6.16",
        "version" : "2.0"
    },
    "scene" : 0,
    "scenes" : [
        {
            "name" : "Scene",
            "nodes" : [
                2
            ]
        }
    ],
    "nodes" : [
        {
            "mesh" : 0,
            "name" : "main_rotor",
            "translation" : [
                -0.5,
                1.899999976158142,
                0
            ]
        },
        {
            "mesh" : 1,
            "name" : "tail_rotor",
            "rotation" : [
                -0.7071068286895752,
                0,
                0,
                0.7071068286895752
            ],
            "translation" : [
                -8.600000381469727,
                1.1299999952316284,
                -0.4000000059604645
            ]
        },
        {
            "children" : [
                0,
                1
            ],
            "mesh" : 2,
            "name" : "body"
        }
    ],
    "materials" : [
        {
            "doubleSided" : true,
            "name" : "rotor_mat",
            "pbrMetallicRoughness" : {
                "baseColorTexture" : {
                    "index" : 0
                },
                "metallicFactor" : 0,
                "roughnessFactor" : 0.5
            }
        },
        {
            "doubleSided" : true,
            "name" : "body_mat",
            "pbrMetallicRoughness" : {
                "baseColorTexture" : {
                    "index" : 1
                },
                "metallicFactor" : 0,
                "roughnessFactor" : 0.5
            }
        }
    ],
    "meshes" : [
        {
            "name" : "main_rotor_geom",
            "primitives" : [
                {
                    "attributes" : {
                        "POSITION" : 0,
                        "NORMAL" : 1,
                        "TANGENT" : 2,
                        "TEXCOORD_0" : 3
                    },
                    "indices" : 4,
                    "material" : 0
                }
            ]
        },
        {
            "name" : "tail_rotor_geom",
            "primitives" : [
                {
                    "attributes" : {
                        "POSITION" : 5,
                        "NORMAL" : 6,
                        "TANGENT" : 7,
                        "TEXCOORD_0" : 8
                    },
                    "indices" : 9,
                    "material" : 0
                }
            ]
        },
        {
            "name" : "body_geom",
            "primitives" : [
                {
                    "attributes" : {
                        "POSITION" : 10,
                        "NORMAL" : 11,
                        "TANGENT" : 12,
                        "TEXCOORD_0" : 13
                    },
                    "indices" : 14,
                    "material" : 1
                }
            ]
        }
    ],
    "textures" : [
        {
            "sampler" : 0,
            "source" : 0
        },
        {
            "sampler" : 0,
            "source" : 1
        }
    ],
    "images" : [
        {
            "mimeType" : "image/png",
            "name" : "army_ah_rotor_tex",
            "uri" : "army_ah_rotor_tex.png"
        },
        {
            "mimeType" : "image/png",
            "name" : "army_ah_body_tex",
            "uri" : "army_ah_body_tex.png"
        }
    ],
    "accessors" : [
        {
            "bufferView" : 0,
            "componentType" : 5126,
            "count" : 202,
            "max" : [
                6.471782684326172,
                0.10841871798038483,
                0.2981804311275482
            ],
            "min" : [
                -6.471782684326172,
                -0.4000000059604645,
                -0.29818037152290344
            ],
            "type" : "VEC3"
        },
        {
            "bufferView" : 1,
            "componentType" : 5126,
            "count" : 202,
            "type" : "VEC3"
        },
        {
            "bufferView" : 2,
            "componentType" : 5126,
            "count" : 202,
            "type" : "VEC4"
        },
        {
            "bufferView" : 3,
            "componentType" : 5126,
            "count" : 202,
            "type" : "VEC2"
        },
        {
            "bufferView" : 4,
            "componentType" : 5123,
            "count" : 222,
            "type" : "SCALAR"
        },
        {
            "bufferView" : 5,
            "componentType" : 5126,
            "count" : 128,
            "max" : [
                1.4000000953674316,
                0,
                0.1714213490486145
            ],
            "min" : [
                -1.4000000953674316,
                -0.3500000238418579,
                -0.1714213490486145
            ],
            "type" : "VEC3"
        },
        {
            "bufferView" : 6,
            "componentType" : 5126,
            "count" : 128,
            "type" : "VEC3"
        },
        {
            "bufferView" : 7,
            "componentType" : 5126,
            "count" : 128,
            "type" : "VEC4"
        },
        {
            "bufferView" : 8,
            "componentType" : 5126,
            "count" : 128,
            "type" : "VEC2"
        },
        {
            "bufferView" : 9,
            "componentType" : 5123,
            "count" : 144,
            "type" : "SCALAR"
        },
        {
            "bufferView" : 10,
            "componentType" : 5126,
            "count" : 1471,
            "max" : [
                4.36650276184082,
                1.695465087890625,
                1.690000057220459
            ],
            "min" : [
                -9.30016040802002,
                -1.524999976158142,
                -1.690000057220459
            ],
            "type" : "VEC3"
        },
        {
            "bufferView" : 11,
            "componentType" : 5126,
            "count" : 1471,
            "type" : "VEC3"
        },
        {
            "bufferView" : 12,
            "componentType" : 5126,
            "count" : 1471,
            "type" : "VEC4"
        },
        {
            "bufferView" : 13,
            "componentType" : 5126,
            "count" : 1471,
            "type" : "VEC2"
        },
        {
            "bufferView" : 14,
            "componentType" : 5123,
            "count" : 1581,
            "type" : "SCALAR"
        }
    ],
    "bufferViews" : [
        {
            "buffer" : 0,
            "byteLength" : 2424,
            "byteOffset" : 0
        },
        {
            "buffer" : 0,
            "byteLength" : 2424,
            "byteOffset" : 2424
        },
        {
            "buffer" : 0,
            "byteLength" : 3232,
            "byteOffset" : 4848
        },
        {
            "buffer" : 0,
            "byteLength" : 1616,
            "byteOffset" : 8080
        },
        {
            "buffer" : 0,
            "byteLength" : 444,
            "byteOffset" : 9696
        },
        {
            "buffer" : 0,
            "byteLength" : 1536,
            "byteOffset" : 10140
        },
        {
            "buffer" : 0,
            "byteLength" : 1536,
            "byteOffset" : 11676
        },
        {
            "buffer" : 0,
            "byteLength" : 2048,
            "byteOffset" : 13212
        },
        {
            "buffer" : 0,
            "byteLength" : 1024,
            "byteOffset" : 15260
        },
        {
            "buffer" : 0,
            "byteLength" : 288,
            "byteOffset" : 16284
        },
        {
            "buffer" : 0,
            "byteLength" : 17652,
            "byteOffset" : 16572
        },
        {
            "buffer" : 0,
            "byteLength" : 17652,
            "byteOffset" : 34224
        },
        {
            "buffer" : 0,
            "byteLength" : 23536,
            "byteOffset" : 51876
        },
        {
            "buffer" : 0,
            "byteLength" : 11768,
            "byteOffset" : 75412
        },
        {
            "buffer" : 0,
            "byteLength" : 3162,
            "byteOffset" : 87180
        }
    ],
    "samplers" : [
        {
            "magFilter" : 9728,
            "minFilter" : 9984
        }
    ],
    "buffers" : [
        {
            "byteLength" : 90344,
            "uri" : "army_ah.bin"
        }
    ]
}
