{
    "asset" : {
        "generator" : "Khronos glTF Blender I/O v1.6.16",
        "version" : "2.0"
    },
    "scene" : 0,
    "scenes" : [
        {
            "name" : "Scene",
            "nodes" : [
                0
            ]
        }
    ],
    "nodes" : [
        {
            "mesh" : 0,
            "name" : "hand",
            "scale" : [
                3.9772024154663086,
                3.9772024154663086,
                3.9772019386291504
            ]
        }
    ],
    "materials" : [
        {
            "doubleSided" : true,
            "name" : "Material.001",
            "normalTexture" : {
                "index" : 0
            },
            "pbrMetallicRoughness" : {
                "baseColorTexture" : {
                    "index" : 1
                },
                "metallicFactor" : 0,
                "metallicRoughnessTexture" : {
                    "index" : 2
                }
            }
        }
    ],
    "meshes" : [
        {
            "name" : "Cube.001",
            "primitives" : [
                {
                    "attributes" : {
                        "POSITION" : 0,
                        "NORMAL" : 1,
                        "TANGENT" : 2,
                        "TEXCOORD_0" : 3
                    },
                    "indices" : 4,
                    "material" : 0
                }
            ]
        }
    ],
    "textures" : [
        {
            "sampler" : 0,
            "source" : 0
        },
        {
            "sampler" : 0,
            "source" : 1
        },
        {
            "sampler" : 0,
            "source" : 2
        }
    ],
    "images" : [
        {
            "mimeType" : "image/png",
            "name" : "hand_norm",
            "uri" : "hand_norm.png"
        },
        {
            "mimeType" : "image/png",
            "name" : "hand_diff",
            "uri" : "hand_diff.png"
        },
        {
            "mimeType" : "image/png",
            "name" : "hand_refl",
            "uri" : "hand_refl.png"
        }
    ],
    "accessors" : [
        {
            "bufferView" : 0,
            "componentType" : 5126,
            "count" : 537,
            "max" : [
                0.018302202224731445,
                0.019881652668118477,
                0.1891312301158905
            ],
            "min" : [
                -0.014388442039489746,
                -0.01950940676033497,
                -0.016336511820554733
            ],
            "type" : "VEC3"
        },
        {
            "bufferView" : 1,
            "componentType" : 5126,
            "count" : 537,
            "type" : "VEC3"
        },
        {
            "bufferView" : 2,
            "componentType" : 5126,
            "count" : 537,
            "type" : "VEC4"
        },
        {
            "bufferView" : 3,
            "componentType" : 5126,
            "count" : 537,
            "type" : "VEC2"
        },
        {
            "bufferView" : 4,
            "componentType" : 5123,
            "count" : 537,
            "type" : "SCALAR"
        }
    ],
    "bufferViews" : [
        {
            "buffer" : 0,
            "byteLength" : 6444,
            "byteOffset" : 0
        },
        {
            "buffer" : 0,
            "byteLength" : 6444,
            "byteOffset" : 6444
        },
        {
            "buffer" : 0,
            "byteLength" : 8592,
            "byteOffset" : 12888
        },
        {
            "buffer" : 0,
            "byteLength" : 4296,
            "byteOffset" : 21480
        },
        {
            "buffer" : 0,
            "byteLength" : 1074,
            "byteOffset" : 25776
        }
    ],
    "samplers" : [
        {
            "magFilter" : 9728,
            "minFilter" : 9984
        }
    ],
    "buffers" : [
        {
            "byteLength" : 26852,
            "uri" : "hand.bin"
        }
    ]
}
