{
    "asset" : {
        "generator" : "Khronos glTF Blender I/O v1.6.16",
        "version" : "2.0"
    },
    "scene" : 0,
    "scenes" : [
        {
            "name" : "Scene",
            "nodes" : [
                0
            ]
        }
    ],
    "nodes" : [
        {
            "mesh" : 0,
            "name" : "body"
        }
    ],
    "materials" : [
        {
            "doubleSided" : true,
            "name" : "body_mat",
            "normalTexture" : {
                "index" : 0
            },
            "pbrMetallicRoughness" : {
                "baseColorTexture" : {
                    "index" : 1
                },
                "metallicFactor" : 0
            }
        }
    ],
    "meshes" : [
        {
            "name" : "body_geom",
            "primitives" : [
                {
                    "attributes" : {
                        "POSITION" : 0,
                        "NORMAL" : 1,
                        "TANGENT" : 2,
                        "TEXCOORD_0" : 3
                    },
                    "indices" : 4,
                    "material" : 0
                }
            ]
        }
    ],
    "textures" : [
        {
            "sampler" : 0,
            "source" : 0
        },
        {
            "sampler" : 0,
            "source" : 1
        }
    ],
    "images" : [
        {
            "mimeType" : "image/png",
            "name" : "revf_ifv_norm",
            "uri" : "revf_ifv_norm.png"
        },
        {
            "mimeType" : "image/png",
            "name" : "revf_ifv_tex",
            "uri" : "revf_ifv_tex.png"
        }
    ],
    "accessors" : [
        {
            "bufferView" : 0,
            "componentType" : 5126,
            "count" : 2610,
            "max" : [
                3.25,
                3.596801280975342,
                1.2999999523162842
            ],
            "min" : [
                -2.9700002670288086,
                0,
                -1.2999999523162842
            ],
            "type" : "VEC3"
        },
        {
            "bufferView" : 1,
            "componentType" : 5126,
            "count" : 2610,
            "type" : "VEC3"
        },
        {
            "bufferView" : 2,
            "componentType" : 5126,
            "count" : 2610,
            "type" : "VEC4"
        },
        {
            "bufferView" : 3,
            "componentType" : 5126,
            "count" : 2610,
            "type" : "VEC2"
        },
        {
            "bufferView" : 4,
            "componentType" : 5123,
            "count" : 3030,
            "type" : "SCALAR"
        }
    ],
    "bufferViews" : [
        {
            "buffer" : 0,
            "byteLength" : 31320,
            "byteOffset" : 0
        },
        {
            "buffer" : 0,
            "byteLength" : 31320,
            "byteOffset" : 31320
        },
        {
            "buffer" : 0,
            "byteLength" : 41760,
            "byteOffset" : 62640
        },
        {
            "buffer" : 0,
            "byteLength" : 20880,
            "byteOffset" : 104400
        },
        {
            "buffer" : 0,
            "byteLength" : 6060,
            "byteOffset" : 125280
        }
    ],
    "samplers" : [
        {
            "magFilter" : 9728,
            "minFilter" : 9984
        }
    ],
    "buffers" : [
        {
            "byteLength" : 131340,
            "uri" : "revf_ifv.bin"
        }
    ]
}
