{
    "asset" : {
        "generator" : "Khronos glTF Blender I/O v1.6.16",
        "version" : "2.0"
    },
    "scene" : 0,
    "scenes" : [
        {
            "name" : "Scene",
            "nodes" : [
                0,
                1
            ]
        }
    ],
    "nodes" : [
        {
            "mesh" : 0,
            "name" : "gun"
        },
        {
            "name" : "Camera",
            "rotation" : [
                0.5,
                0.5,
                -0.5,
                0.4999999701976776
            ],
            "translation" : [
                0.5,
                0.25,
                0.20000000298023224
            ]
        }
    ],
    "materials" : [
        {
            "doubleSided" : true,
            "name" : "gun_mat",
            "normalTexture" : {
                "index" : 0
            },
            "pbrMetallicRoughness" : {
                "baseColorTexture" : {
                    "index" : 1
                },
                "metallicFactor" : 0.4654545187950134,
                "metallicRoughnessTexture" : {
                    "index" : 2
                }
            }
        }
    ],
    "meshes" : [
        {
            "name" : "gun_geom",
            "primitives" : [
                {
                    "attributes" : {
                        "POSITION" : 0,
                        "NORMAL" : 1,
                        "TANGENT" : 2,
                        "TEXCOORD_0" : 3
                    },
                    "indices" : 4,
                    "material" : 0
                }
            ]
        }
    ],
    "textures" : [
        {
            "sampler" : 0,
            "source" : 0
        },
        {
            "sampler" : 0,
            "source" : 1
        },
        {
            "sampler" : 0,
            "source" : 2
        }
    ],
    "images" : [
        {
            "mimeType" : "image/png",
            "name" : "revf_rifle_norm",
            "uri" : "revf_rifle_norm.png"
        },
        {
            "mimeType" : "image/png",
            "name" : "revf_rifle_diff",
            "uri" : "revf_rifle_diff.png"
        },
        {
            "mimeType" : "image/png",
            "name" : "revf_rifle_refl",
            "uri" : "revf_rifle_refl.png"
        }
    ],
    "accessors" : [
        {
            "bufferView" : 0,
            "componentType" : 5126,
            "count" : 942,
            "max" : [
                0.00924856960773468,
                0.035472337156534195,
                0.08245402574539185
            ],
            "min" : [
                -0.005000018514692783,
                -0.02913459949195385,
                -0.15901869535446167
            ],
            "type" : "VEC3"
        },
        {
            "bufferView" : 1,
            "componentType" : 5126,
            "count" : 942,
            "type" : "VEC3"
        },
        {
            "bufferView" : 2,
            "componentType" : 5126,
            "count" : 942,
            "type" : "VEC4"
        },
        {
            "bufferView" : 3,
            "componentType" : 5126,
            "count" : 942,
            "type" : "VEC2"
        },
        {
            "bufferView" : 4,
            "componentType" : 5123,
            "count" : 1014,
            "type" : "SCALAR"
        }
    ],
    "bufferViews" : [
        {
            "buffer" : 0,
            "byteLength" : 11304,
            "byteOffset" : 0
        },
        {
            "buffer" : 0,
            "byteLength" : 11304,
            "byteOffset" : 11304
        },
        {
            "buffer" : 0,
            "byteLength" : 15072,
            "byteOffset" : 22608
        },
        {
            "buffer" : 0,
            "byteLength" : 7536,
            "byteOffset" : 37680
        },
        {
            "buffer" : 0,
            "byteLength" : 2028,
            "byteOffset" : 45216
        }
    ],
    "samplers" : [
        {
            "magFilter" : 9728,
            "minFilter" : 9984
        }
    ],
    "buffers" : [
        {
            "byteLength" : 47244,
            "uri" : "revf_rifle.bin"
        }
    ]
}
